<?xml version="1.0" encoding="UTF-8"?>
<svg version="1.1" xmlns="http://www.w3.org/2000/svg" width="706" height="344">
<path d="M0 0 C232.98 0 465.96 0 706 0 C706 113.52 706 227.04 706 344 C473.02 344 240.04 344 0 344 C0 230.48 0 116.96 0 0 Z " fill="#FDFDFD" transform="translate(0,0)"/>
<path d="M0 0 C1.83426404 1.83426404 1.13272977 4.77045777 1.13803101 7.23002625 C1.14085229 7.88818276 1.14367357 8.54633927 1.14658034 9.22443992 C1.15496225 11.44610639 1.15626766 13.66772327 1.15771484 15.8894043 C1.16238054 17.47585695 1.1675237 19.06230826 1.17311096 20.64875793 C1.18441305 24.07386335 1.19283711 27.49895995 1.19923019 30.92407799 C1.2098892 36.34043516 1.23012936 41.75672938 1.25234985 47.17304993 C1.3143416 62.57814647 1.36826882 77.98324007 1.40136719 93.38842773 C1.41971342 101.88994589 1.44865194 110.3913594 1.4893719 118.89280063 C1.51044686 123.39337556 1.52589981 127.89381854 1.52817917 132.39444542 C1.53032695 136.63062077 1.54620959 140.86652169 1.57256889 145.10261345 C1.57975917 146.65619646 1.58186416 148.20981273 1.57846642 149.76340866 C1.57456343 151.88761471 1.5890517 154.01094785 1.60800171 156.13505554 C1.61296693 157.91677674 1.61296693 157.91677674 1.61803246 159.7344923 C2.05152059 163.44045857 3.04703709 165.83399134 5 169 C8.44450737 171.29633824 10.93812283 171.54016485 15 172 C15 173.32 15 174.64 15 176 C11.26507223 177.1600912 7.64253221 177.17893272 3.75 177.3125 C-4.83754508 177.69359559 -13.17911047 179.0678179 -21.62402344 180.62817383 C-27.18916805 181.63435123 -32.34371127 182.20849578 -38 182 C-38.495 176.06 -38.495 176.06 -39 170 C-40.21623047 170.79664063 -40.21623047 170.79664063 -41.45703125 171.609375 C-54.52435892 179.94569114 -66.24569435 184.30421321 -82 182 C-86.24637548 180.61392819 -89.47303252 178.71305191 -93 176 C-93.72316406 175.48179687 -94.44632812 174.96359375 -95.19140625 174.4296875 C-104.09359165 167.43631984 -108.45376028 158.5209099 -110.4921875 147.5546875 C-110.73898986 145.07578391 -110.73898986 145.07578391 -112 144 C-112.99183867 128.11150744 -110.98662798 113.44187126 -104 99 C-103.55527344 98.02933594 -103.11054688 97.05867188 -102.65234375 96.05859375 C-94.93300327 81.7696018 -81.32059891 70.98086235 -66 66 C-62.50221743 65.17890541 -59.2887115 64.88135256 -55.69921875 64.90234375 C-54.72275391 64.90556641 -53.74628906 64.90878906 -52.74023438 64.91210938 C-51.73283203 64.92048828 -50.72542969 64.92886719 -49.6875 64.9375 C-48.66076172 64.94201172 -47.63402344 64.94652344 -46.57617188 64.95117188 C-44.05072118 64.96291816 -41.52539095 64.97934435 -39 65 C-39.04165928 58.25516617 -39.11397577 51.51115816 -39.20751953 44.7668457 C-39.23572882 42.47297626 -39.25694353 40.17900962 -39.27099609 37.88500977 C-39.29242551 34.58559407 -39.33907783 31.28734698 -39.390625 27.98828125 C-39.39185364 26.96414627 -39.39308228 25.94001129 -39.39434814 24.88484192 C-39.48591483 20.42405235 -39.54832113 17.74214312 -41.90429688 13.87109375 C-44.09806357 11.91244651 -45.38651798 11.2124717 -48.25 10.6875 C-49.4875 10.460625 -50.725 10.23375 -52 10 C-52 8.68 -52 7.36 -52 6 C-41.1010855 4.30005869 -30.19159118 2.7141158 -19.25 1.3125 C-18.25162109 1.18125732 -17.25324219 1.05001465 -16.22460938 0.91479492 C-10.7724074 0.22959321 -5.49625238 -0.23646667 0 0 Z " fill="#3F3B39" transform="translate(566,29)"/>
<path d="M0 0 C1.47339844 0.34417969 1.47339844 0.34417969 2.9765625 0.6953125 C7.80302399 1.90511156 11.86031151 3.16135647 16 6 C17.99242489 7.0150089 19.99074195 8.01873444 22 9 C22.29119632 13.75620649 21.71698131 16.81676727 19.77523804 21.13064575 C18.54874578 24.08812255 17.88472244 27.12942776 17.17578125 30.24609375 C17.02465378 30.90207047 16.87352631 31.55804718 16.71781921 32.23390198 C16.24319714 34.30041267 15.7776988 36.36885 15.3125 38.4375 C14.98953717 39.8510498 14.66597474 41.26446274 14.34179688 42.67773438 C13.55427002 46.11693721 12.77490339 49.55792811 12 53 C10.35 53 8.7 53 7 53 C5.84663735 49.62752629 4.70367133 46.25161655 3.5625 42.875 C3.07426758 41.44800781 3.07426758 41.44800781 2.57617188 39.9921875 C1.01038666 35.34325819 -0.41485682 30.89542321 -1 26 C-1.66 26 -2.32 26 -3 26 C-3.21914062 25.26394531 -3.43828125 24.52789062 -3.6640625 23.76953125 C-6.02715123 16.49775008 -8.19685982 12.44751317 -15.24609375 8.85546875 C-25.24906455 4.207126 -36.27761221 3.36961182 -47.0390625 6.25 C-53.66945737 8.78592792 -56.9353524 12.74811889 -60 19 C-60.66 19 -61.32 19 -62 19 C-62.02703562 21.58340384 -62.04685611 24.16652308 -62.0625 26.75 C-62.07506836 27.84441406 -62.07506836 27.84441406 -62.08789062 28.9609375 C-62.10391684 32.48670558 -61.95292713 35.61034916 -61 39 C-60.34 39 -59.68 39 -59 39 C-58.18638568 40.1372453 -57.42531933 41.3121794 -56.6875 42.5 C-51.02703174 50.34936855 -41.71051025 54.35779607 -33 58 C-31.78418182 58.61031189 -30.57425187 59.23274663 -29.375 59.875 C-25.93343131 61.62562454 -22.42686798 63.01798098 -18.8125 64.375 C-12.03826001 66.92128927 -5.5328732 69.88859885 1 73 C1 73.66 1 74.32 1 75 C2.09054688 75.4021875 2.09054688 75.4021875 3.203125 75.8125 C15.1024773 80.86473897 24.07010524 90.63482744 29.125 102.359375 C33.39096403 115.23344501 31.53300004 129.70263148 26.8125 142.125 C19.26832166 154.09162771 8.85895864 163.31545451 -4.5625 168.1875 C-5.49191406 168.53167969 -6.42132813 168.87585938 -7.37890625 169.23046875 C-10 170 -10 170 -14 170 C-14 170.66 -14 171.32 -14 172 C-33.52329633 176.82340262 -53.40847166 176.10296372 -73 172 C-74.546875 171.69255859 -74.546875 171.69255859 -76.125 171.37890625 C-83.98259999 169.54013648 -90.92433638 165.77024412 -98 162 C-97.91145865 160.31160805 -97.80327913 158.62424306 -97.6875 156.9375 C-97.62949219 155.99777344 -97.57148437 155.05804688 -97.51171875 154.08984375 C-97.0212286 151.12818183 -96.07419018 148.88065665 -94.83569336 146.17114258 C-92.94573521 141.2610059 -92.05295061 136.00436111 -90.9375 130.875 C-90.42953087 128.55907022 -89.91794532 126.24393001 -89.40234375 123.9296875 C-89.18054443 122.91116699 -88.95874512 121.89264648 -88.73022461 120.84326172 C-88.02684388 118.10452151 -87.11237659 115.59623992 -86 113 C-84.35 113.33 -82.7 113.66 -81 114 C-80.52820313 115.46759766 -80.52820313 115.46759766 -80.046875 116.96484375 C-77.95123987 123.41149501 -75.8495428 129.75226569 -72.95703125 135.89453125 C-71.89688451 138.22685408 -71.01840921 140.59919253 -70.125 143 C-66.0787316 153.13928735 -60.11447017 160.85318897 -50.0625 165.375 C-48.71336099 165.92907045 -47.36086984 166.47540165 -46 167 C-46 167.66 -46 168.32 -46 169 C-42.79174438 169.05849554 -39.58362767 169.09376162 -36.375 169.125 C-35.47136719 169.14175781 -34.56773438 169.15851563 -33.63671875 169.17578125 C-23.84293152 169.24726875 -17.50289545 166.26285096 -10 160 C-8.12428521 157.75436466 -6.6035914 155.45549934 -5 153 C-4.34 153 -3.68 153 -3 153 C-3.02988077 142.76583556 -3.91326094 134.07850817 -11.44433594 126.55761719 C-19.08735282 119.57276185 -27.37363959 114.78977976 -37 111 C-37 110.34 -37 109.68 -37 109 C-37.94875 108.87625 -38.8975 108.7525 -39.875 108.625 C-43 108 -43 108 -45 106 C-46.56271897 105.30577053 -48.15009075 104.66610213 -49.75 104.0625 C-53.63039489 102.56095589 -57.32012555 100.93677603 -61 99 C-61 98.34 -61 97.68 -61 97 C-62.05960938 96.85884766 -62.05960938 96.85884766 -63.140625 96.71484375 C-72.86461752 94.28384562 -81.22585554 85.85236414 -87 78 C-92.12882292 69.32896845 -93.25320387 62.53317425 -93.375 52.5625 C-93.43107422 50.87350586 -93.43107422 50.87350586 -93.48828125 49.15039062 C-93.61594044 36.81709399 -89.35070649 27.01180408 -81 18 C-60.78980561 -2.46282182 -27.13051207 -6.76175839 0 0 Z " fill="#3F3B3A" transform="translate(112,38)"/>
<path d="M0 0 C1.35735142 1.30887458 2.68505488 2.64852862 4 4 C5.32977206 5.12920727 6.66346989 6.25379974 8 7.375 C13.7669643 12.42377358 16.80180407 17.39125982 18 25 C18.26332987 29.32577909 18.3193832 33.64381163 18.33552551 37.97707558 C18.34389304 40.15043291 18.36446307 42.32338562 18.38806152 44.49662781 C18.4441437 49.88607165 18.47975251 55.27561299 18.51568604 60.66522217 C18.54692515 65.23789182 18.58607552 69.81035835 18.63594055 74.382864 C18.6559878 76.52279249 18.66431962 78.66256382 18.67224121 80.80256653 C18.68565552 82.09788803 18.69906982 83.39320953 18.71289062 84.7277832 C18.72382751 86.44032036 18.72382751 86.44032036 18.73498535 88.18745422 C18.79520132 91.20651764 18.79520132 91.20651764 21 94 C22.901994 94.47558206 22.901994 94.47558206 25 94.375 C26.051875 94.38660156 26.051875 94.38660156 27.125 94.3984375 C29.41058594 94.140914 29.41058594 94.140914 31 91 C32.32 91 33.64 91 35 91 C34.67 92.98 34.34 94.96 34 97 C33.34 97 32.68 97 32 97 C31.773125 97.5775 31.54625 98.155 31.3125 98.75 C27.37856937 105.49388108 18.2467168 109.05186756 11 111 C7.66284337 111.32841057 4.35149979 111.37007132 1 111.375 C0.1234375 111.39949219 -0.753125 111.42398438 -1.65625 111.44921875 C-7.2855642 111.4746524 -10.57829458 110.81321384 -15 107 C-20 101.48837209 -20 101.48837209 -20 98 C-20.66 98 -21.32 98 -22 98 C-22 98.66 -22 99.32 -22 100 C-35.3581288 109.94754272 -49.74009314 112.29581419 -65.91796875 110.71484375 C-73.66953372 109.05115334 -78.52997076 103.22191949 -83 97 C-85.42737421 90.97513272 -85.25519678 80.17666943 -82.9375 74.0625 C-77.18174699 64.96469685 -69.81365338 58.52908961 -60.1875 53.875 C-59.47464844 53.52590576 -58.76179687 53.17681152 -58.02734375 52.81713867 C-53.10438629 50.44381052 -48.25059789 48.5190409 -43 47 C-41.69159902 46.5763273 -40.38442463 46.14885806 -39.078125 45.71875 C-37.63551262 45.24970479 -36.19280337 44.78095738 -34.75 44.3125 C-34.06357422 44.0853833 -33.37714844 43.8582666 -32.66992188 43.62426758 C-28.82171376 42.39936751 -26.12728578 42 -22 42 C-22.33 29.13 -22.66 16.26 -23 3 C-24.32 2.34 -25.64 1.68 -27 1 C-27.495 0.505 -27.495 0.505 -28 0 C-29.62252492 -0.09886353 -31.24947273 -0.12971167 -32.875 -0.125 C-33.75929688 -0.12757812 -34.64359375 -0.13015625 -35.5546875 -0.1328125 C-38.13906291 -0.10048585 -38.13906291 -0.10048585 -41 1 C-41.91298748 3.73896245 -42.10150854 5.25613003 -42.0703125 8.0625 C-42.14113937 18.15584213 -42.52850159 26.3428743 -50 34 C-54.39075895 36.84160004 -58.94650442 36.58451852 -64 36 C-69.03000995 34.6936055 -72.80353499 33.01567081 -75.5 28.4375 C-77.80756274 23.14933539 -79.18368874 18.69367932 -77.3515625 12.9765625 C-75.08727931 7.92546923 -71.84400945 3.80442652 -67 1 C-65.68 1 -64.36 1 -63 1 C-63 0.34 -63 -0.32 -63 -1 C-61.33769459 -1.65697732 -59.66985652 -2.29995967 -58 -2.9375 C-57.071875 -3.29714844 -56.14375 -3.65679687 -55.1875 -4.02734375 C-39.11023945 -8.93327252 -14.83182444 -8.54889881 0 0 Z " fill="#403C3A" transform="translate(667,100)"/>
<path d="M0 0 C1.12728516 -0.00990967 2.25457031 -0.01981934 3.41601562 -0.0300293 C13.65271772 0.07380182 23.06134935 2.0221781 32.3125 6.4375 C32.3125 7.0975 32.3125 7.7575 32.3125 8.4375 C33.40884766 8.80875 33.40884766 8.80875 34.52734375 9.1875 C37.60022729 10.56663427 39.46723271 12.09254403 41.875 14.4375 C42.99068359 15.489375 42.99068359 15.489375 44.12890625 16.5625 C50.27726147 24.65765106 50.88583823 33.09295032 50.82892036 42.96586227 C50.8161421 45.19450705 50.82770854 47.42194025 50.84495544 49.65054321 C50.87147282 53.57150633 50.87725737 57.49216492 50.87585449 61.41320801 C50.87361241 67.70864505 50.88775707 74.00370947 50.93144035 80.29899979 C50.94125905 82.49058114 50.9325784 84.68156957 50.92274475 86.87313843 C50.92888761 88.21539702 50.93579889 89.55765239 50.94360352 90.89990234 C50.94264175 92.06887054 50.94167999 93.23783875 50.94068909 94.44223022 C51.35071908 97.74538887 51.89781437 99.16478615 54.3125 101.4375 C57.93813814 101.77130814 57.93813814 101.77130814 61.3125 101.4375 C62.3025 99.4575 62.3025 99.4575 63.3125 97.4375 C64.6325 97.4375 65.9525 97.4375 67.3125 97.4375 C66.77858326 101.97579228 65.11583268 104.8554638 62.3125 108.4375 C58.1125 111.4375 58.1125 111.4375 55.3125 111.4375 C54.8175 112.9225 54.8175 112.9225 54.3125 114.4375 C48.08899882 117.59472503 40.90060356 117.74313098 34.0625 117.8125 C33.30654541 117.82627686 32.55059082 117.84005371 31.77172852 117.85424805 C26.56806566 117.8114219 22.89623505 116.95261972 18.3125 114.4375 C16.31640625 112.39453125 16.31640625 112.39453125 14.875 110.25 C14.38128906 109.53457031 13.88757813 108.81914062 13.37890625 108.08203125 C13.02699219 107.53933594 12.67507813 106.99664062 12.3125 106.4375 C11.590625 106.72625 10.86875 107.015 10.125 107.3125 C8.28891762 108.04693295 6.43424401 108.73690545 4.5625 109.375 C3.82 109.725625 3.0775 110.07625 2.3125 110.4375 C1.8175 111.9225 1.8175 111.9225 1.3125 113.4375 C-9.55787178 118.8545686 -24.29780797 119.32122781 -35.90625 116.12890625 C-38.8665426 114.97984531 -41.18972183 113.38021635 -43.6875 111.4375 C-44.22503906 111.04304688 -44.76257813 110.64859375 -45.31640625 110.2421875 C-48.79364863 107.57769815 -50.43382927 105.59531621 -51.6875 101.4375 C-52.75555031 89.76346178 -51.67650891 81.06968854 -44.125 71.8125 C-36.3611624 63.59028084 -26.45123822 58.64152084 -15.6875 55.4375 C-14.3675 55.4375 -13.0475 55.4375 -11.6875 55.4375 C-11.6875 54.7775 -11.6875 54.1175 -11.6875 53.4375 C-8.3971777 52.43303896 -5.10503178 51.43469244 -1.8125 50.4375 C-0.87535156 50.15132812 0.06179688 49.86515625 1.02734375 49.5703125 C1.92324219 49.29960937 2.81914062 49.02890625 3.7421875 48.75 C4.56960449 48.49863281 5.39702148 48.24726563 6.24951172 47.98828125 C8.3125 47.4375 8.3125 47.4375 10.3125 47.4375 C10.31783613 42.25878175 10.28418897 37.08231052 10.21484375 31.90405273 C10.19670761 30.14371357 10.18911094 28.38323228 10.19238281 26.62280273 C10.19524702 24.08726576 10.15986535 21.55466122 10.1171875 19.01953125 C10.12628143 18.23600784 10.13537537 17.45248444 10.14474487 16.6452179 C10.04113096 12.40931586 10.04113096 12.40931586 8.00057983 8.81639099 C5.22800889 6.43378302 2.90395488 4.7471058 -0.8125 4.875 C-4.66481452 5.12081669 -4.66481452 5.12081669 -7.125 7.25 C-10.50296208 11.97914691 -9.98236481 17.43297551 -10.1171875 23.01367188 C-10.38241397 29.3072749 -11.92152824 33.45078177 -16.1875 38.25 C-20.02873764 41.61108294 -23.11286146 41.61954158 -28.0625 41.6875 C-29.18398438 41.71328125 -30.30546875 41.7390625 -31.4609375 41.765625 C-36.32327504 41.27115 -38.87703272 39.13990497 -42.5 36 C-45.55704833 32.17388291 -45.1615229 28.04431148 -45.05859375 23.33984375 C-44.38282712 18.0546374 -42.818394 15.11192102 -38.75 11.6875 C-38.06035156 11.09453125 -37.37070312 10.5015625 -36.66015625 9.890625 C-34.6875 8.4375 -34.6875 8.4375 -31.6875 7.4375 C-31.0378125 6.73173828 -31.0378125 6.73173828 -30.375 6.01171875 C-23.11047743 -0.76513911 -9.15077356 0.04194731 0 0 Z " fill="#403C3B" transform="translate(385.6875,93.5625)"/>
<path d="M0 0 C4.20271152 2.91465062 7.11011131 5.89283394 8.75 10.8125 C9.53324646 17.32243371 8.57060288 22.4331849 4.75 27.8125 C1.06663007 31.78147882 -2.29574329 33.56270919 -7.65234375 34.015625 C-12.69926813 34.10894255 -16.18990906 34.15610431 -20.25 30.8125 C-21.24 29.7915625 -21.24 29.7915625 -22.25 28.75 C-24.55218106 26.5197621 -26.15213779 25.62384487 -29.25 24.8125 C-32.9613594 24.96398406 -34.69862765 25.35053939 -37.5625 27.75 C-43.28894977 34.74899417 -41.42342428 46.95745373 -41.453125 55.484375 C-41.46167511 57.4061557 -41.46167511 57.4061557 -41.47039795 59.36676025 C-41.48081836 62.0594522 -41.48672155 64.75211503 -41.49023438 67.44482422 C-41.49574991 70.88335342 -41.51987981 74.32149285 -41.54820633 77.75989914 C-41.57134635 81.06388343 -41.5732798 84.36781392 -41.578125 87.671875 C-41.5904718 88.90008972 -41.6028186 90.12830444 -41.61553955 91.39373779 C-41.67647315 99.54942345 -41.67647315 99.54942345 -38.25 106.8125 C-36.04529418 108.34962654 -36.04529418 108.34962654 -33.5625 109.1875 C-32.35013672 109.66316406 -32.35013672 109.66316406 -31.11328125 110.1484375 C-30.49839844 110.36757812 -29.88351562 110.58671875 -29.25 110.8125 C-29.25 112.1325 -29.25 113.4525 -29.25 114.8125 C-51.69 114.8125 -74.13 114.8125 -97.25 114.8125 C-97.25 113.1625 -97.25 111.5125 -97.25 109.8125 C-95.3628125 109.4103125 -95.3628125 109.4103125 -93.4375 109 C-89.19678584 107.9198297 -89.19678584 107.9198297 -86.25 104.8125 C-83.63708547 100.30437861 -82.87495487 97.07135562 -82.87768555 91.87670898 C-82.87403488 91.21086792 -82.87038422 90.54502686 -82.86662292 89.85900879 C-82.85856863 87.67527127 -82.8720824 85.4922878 -82.88671875 83.30859375 C-82.88723792 81.78215027 -82.88671803 80.25570612 -82.88520813 78.72926331 C-82.88529762 75.53758704 -82.89568038 72.34616459 -82.91381836 69.15454102 C-82.93652405 65.07016348 -82.93704365 60.98615576 -82.93030071 56.90173244 C-82.92695458 53.7523929 -82.93360263 50.60313718 -82.94342995 47.45381355 C-82.94726967 45.94797263 -82.94843527 44.44212237 -82.9468441 42.93627739 C-82.94647194 40.83030389 -82.95913444 38.7247993 -82.9753418 36.61889648 C-82.97994919 35.42231918 -82.98455658 34.22574188 -82.98930359 32.99290466 C-83.35550298 28.52540068 -84.26053276 25.80196724 -87.4375 22.625 C-90.73690077 20.4987195 -93.44672497 19.70738824 -97.25 18.8125 C-97.25 17.1625 -97.25 15.5125 -97.25 13.8125 C-96.65276123 13.68721924 -96.05552246 13.56193848 -95.44018555 13.43286133 C-83.33677305 10.881181 -71.31805419 8.16404118 -59.37890625 4.92578125 C-58.69328613 4.74096191 -58.00766602 4.55614258 -57.30126953 4.36572266 C-55.90531471 3.98923686 -54.51049075 3.6085383 -53.11669922 3.22412109 C-49.27001357 2.20019612 -46.29404981 1.8125 -42.25 1.8125 C-41.755 11.2175 -41.755 11.2175 -41.25 20.8125 C-39.6 18.1725 -37.95 15.5325 -36.25 12.8125 C-28.02027749 2.94274303 -12.94081389 -7.63484011 0 0 Z " fill="#403C3A" transform="translate(325.25,93.1875)"/>
<path d="M0 0 C0.99 0 1.98 0 3 0 C3 17.82 3 35.64 3 54 C10.92 54 18.84 54 27 54 C27 54.99 27 55.98 27 57 C19.08 57 11.16 57 3 57 C3.08542477 68.29169576 3.1791347 79.58323863 3.28752708 90.87473774 C3.33752206 96.11755528 3.38385181 101.36035236 3.421875 106.60327148 C3.45868736 111.66079716 3.50503624 116.71815292 3.55806351 121.77553368 C3.57662901 123.70724705 3.59172896 125.63899687 3.60334396 127.57076454 C3.62016955 130.27171947 3.64919547 132.97228343 3.68115234 135.6730957 C3.68331253 136.47582413 3.68547272 137.27855255 3.68769836 138.10560608 C3.7456129 141.92467387 3.83106044 143.74659066 6 147 C7.901994 147.47558206 7.901994 147.47558206 10 147.375 C10.70125 147.38273438 11.4025 147.39046875 12.125 147.3984375 C14.41058594 147.140914 14.41058594 147.140914 16 144 C17.32 144 18.64 144 20 144 C19.85979916 146.85075044 19.73371399 149.27167094 19 152 C16.875 153.6875 16.875 153.6875 14 155 C12.81976856 155.83532362 11.65371366 156.69091719 10.5 157.5625 C7.75610034 159.54190062 5.23142502 160.92285833 2 162 C1.16597656 162.33902344 0.33195312 162.67804688 -0.52734375 163.02734375 C-5.0743411 164.30091219 -9.3006208 164.36808915 -14 164.375 C-14.8765625 164.39949219 -15.753125 164.42398438 -16.65625 164.44921875 C-22.2987154 164.47471182 -25.53030296 163.76761399 -30 160 C-36.21344584 153.60902714 -37.45367317 146.35290299 -37.34057617 137.83007812 C-37.34101425 136.95108856 -37.34145233 136.072099 -37.34190369 135.16647339 C-37.33982908 132.2878323 -37.31656122 129.40978818 -37.29296875 126.53125 C-37.28736807 124.52486489 -37.2831002 122.51847565 -37.28010559 120.51208496 C-37.26869404 115.25130735 -37.23925874 109.9907813 -37.20599365 104.73010254 C-37.17521303 99.35395713 -37.16158321 93.97777077 -37.14648438 88.6015625 C-37.11438541 78.06759829 -37.06323389 67.53382013 -37 57 C-41.95 57 -46.9 57 -52 57 C-51.67 55.68 -51.34 54.36 -51 53 C-50.03320312 52.78085938 -49.06640625 52.56171875 -48.0703125 52.3359375 C-31.58108426 48.40790863 -21.83427902 40.99956524 -12.75 26.4375 C-11.48967977 24.29771178 -10.23880226 22.15231728 -9 20 C-8.50371094 19.18273437 -8.00742188 18.36546875 -7.49609375 17.5234375 C-4.71563834 12.82571283 -2.97891926 8.24616092 -1.578125 2.96875 C-1 1 -1 1 0 0 Z " fill="#3F3B39" transform="translate(197,47)"/>
<path d="M0 0 C8.22344357 6.28349175 15.11820814 12.94145745 16.59204102 23.62109375 C17.44225338 36.30454956 16.59949883 46.27211084 8.4296875 56.484375 C0.95986687 64.60704581 -8.23458332 69.81929599 -19.29296875 70.37890625 C-32.14093953 70.6076535 -42.46833399 68.55853976 -52.19921875 59.78515625 C-54.78718296 57.12512215 -57.7421875 54.06126356 -57.7421875 50.19921875 C-58.4021875 50.19921875 -59.0621875 50.19921875 -59.7421875 50.19921875 C-62.23613905 44.37340072 -63.23889847 39.70345011 -63.1171875 33.38671875 C-63.10341064 32.59700684 -63.08963379 31.80729492 -63.07543945 30.99365234 C-62.7237337 19.27092759 -59.95309645 12.27262817 -51.7265625 3.828125 C-37.91881963 -8.33497834 -15.51196645 -10.18663324 0 0 Z " fill="#397B95" transform="translate(266.7421875,262.80078125)"/>
<path d="M0 0 C17.16 0 34.32 0 52 0 C52 5.61 52 11.22 52 17 C41.44 17 30.88 17 20 17 C20 20.3 20 23.6 20 27 C27.59 27 35.18 27 43 27 C43 32.61 43 38.22 43 44 C35.41 44 27.82 44 20 44 C20 47.96 20 51.92 20 56 C31.22 56 42.44 56 54 56 C54 61.94 54 67.88 54 74 C36.18 74 18.36 74 0 74 C0 49.58 0 25.16 0 0 Z " fill="#3C7E97" transform="translate(526,258)"/>
<path d="M0 0 C17.16 0 34.32 0 52 0 C52 5.61 52 11.22 52 17 C41.44 17 30.88 17 20 17 C20 20.3 20 23.6 20 27 C27.59 27 35.18 27 43 27 C43 32.61 43 38.22 43 44 C35.41 44 27.82 44 20 44 C20 47.96 20 51.92 20 56 C20.99443115 55.99476318 21.9888623 55.98952637 23.01342773 55.98413086 C26.69033921 55.96607959 30.36724675 55.95456754 34.04418945 55.94506836 C35.63794614 55.94002843 37.23169819 55.9331965 38.82543945 55.92456055 C41.11150253 55.91248001 43.39750467 55.90676845 45.68359375 55.90234375 C46.40026718 55.89718246 47.11694061 55.89202118 47.85533142 55.88670349 C49.57063672 55.88650737 51.28581266 55.93807993 53 56 C57.24918293 60.24918293 54 67.99074787 54 74 C36.18 74 18.36 74 0 74 C0 49.58 0 25.16 0 0 Z " fill="#3B7D96" transform="translate(450,258)"/>
<path d="M0 0 C9.29889436 7.4245099 9.29889436 7.4245099 10.765625 12.8125 C10.88164062 13.8953125 10.88164062 13.8953125 11 15 C9.44210317 16.13136586 7.87846143 17.25482321 6.3125 18.375 C5.44238281 19.00148438 4.57226562 19.62796875 3.67578125 20.2734375 C1.16403048 21.89415843 -1.19299187 22.99858088 -4 24 C-4.42410156 23.45730469 -4.84820312 22.91460937 -5.28515625 22.35546875 C-9.75292664 16.90577081 -13.34631194 13.47555936 -20.67578125 12.7265625 C-26.13800412 12.53438686 -30.48372207 12.63904898 -35 16 C-40.19096431 21.87656337 -42.3883708 26.42026311 -42.2734375 34.3046875 C-41.66920745 40.26066947 -39.15325493 45.21734489 -35.0625 49.5625 C-30.79058912 52.88407217 -26.3197824 52.65432388 -21.09375 52.390625 C-14.44145949 51.55068933 -10.46946555 49.12673989 -6 44 C-5.505 43.01 -5.505 43.01 -5 42 C-0.44299575 42.52484692 2.192874 44.31507303 5.8125 47.0625 C6.78832031 47.79597656 7.76414062 48.52945313 8.76953125 49.28515625 C9.50558594 49.85105469 10.24164063 50.41695313 11 51 C10.27369387 57.41570417 3.62714141 62.01484418 -1 66 C-10.41756987 71.95261492 -23.45515044 72.62475417 -34.1875 70.3125 C-45.66536713 66.85941286 -53.21337614 60.41908503 -59 50 C-63.48673986 40.52711284 -63.47410131 29.53731884 -61.19140625 19.4140625 C-57.06938631 8.31741367 -49.23784472 2.06564034 -38.796875 -2.90625 C-26.91928802 -7.55111642 -10.88296938 -6.54724094 0 0 Z " fill="#397B95" transform="translate(174,262)"/>
<path d="M0 0 C3.8932687 1.29775623 5.44535385 2.78498797 8 6 C8.48462696 8.97481323 8.6661055 11.37112129 8.61523438 14.33862305 C8.62078339 15.16519409 8.6263324 15.99176514 8.63204956 16.84338379 C8.64383051 19.5667576 8.61959362 22.2884622 8.59375 25.01171875 C8.59203889 26.90550155 8.59210458 28.79928671 8.59387207 30.69306946 C8.5922199 34.65669491 8.57353588 38.61975403 8.54199219 42.58325195 C8.50223347 47.67134785 8.49795687 52.75870486 8.50545502 57.84692669 C8.50851897 61.75450956 8.49642608 65.6619253 8.47932434 69.56946754 C8.47228015 71.44620529 8.46917152 73.32296198 8.47001648 75.19971275 C8.46822546 77.81667979 8.44690693 80.43274824 8.41992188 83.04956055 C8.42285248 83.82932755 8.42578308 84.60909454 8.42880249 85.41249084 C8.39440918 87.56620789 8.39440918 87.56620789 8 91 C3.49619104 94.00253931 -0.72287696 93.5573916 -6 93 C-13.1400083 91.15621969 -17.21783689 86.06951905 -21 80 C-28.70341421 64.96000083 -26.71347104 40.99828721 -23 25 C-22.80535156 24.04480469 -22.61070312 23.08960937 -22.41015625 22.10546875 C-20.56616497 14.12938811 -17.01544078 7.66743831 -11.125 1.9375 C-6.95941478 -0.64516284 -4.83549353 -0.47562231 0 0 Z " fill="#FAF9F9" transform="translate(519,98)"/>
<path d="M0 0 C16.83 0 33.66 0 51 0 C51 5.61 51 11.22 51 17 C40.44 17 29.88 17 19 17 C19 21.62 19 26.24 19 31 C27.58 31 36.16 31 45 31 C45 36.94 45 42.88 45 49 C36.75 49 28.5 49 20 49 C20 57.25 20 65.5 20 74 C13.4 74 6.8 74 0 74 C0 49.58 0 25.16 0 0 Z " fill="#3B7D96" transform="translate(378,258)"/>
<path d="M0 0 C16.5 0 33 0 50 0 C50 5.61 50 11.22 50 17 C39.77 17 29.54 17 19 17 C19 21.62 19 26.24 19 31 C27.58 31 36.16 31 45 31 C45 36.94 45 42.88 45 49 C36.75 49 28.5 49 20 49 C20 57.25 20 65.5 20 74 C13.4 74 6.8 74 0 74 C0 49.58 0 25.16 0 0 Z " fill="#397C96" transform="translate(306,258)"/>
<path d="M0 0 C1.65 0.33 3.3 0.66 5 1 C5.31453125 1.97839844 5.6290625 2.95679688 5.953125 3.96484375 C8.04876013 10.41149501 10.1504572 16.75226569 13.04296875 22.89453125 C14.10311549 25.22685408 14.98159079 27.59919253 15.875 30 C19.9212684 40.13928735 25.88552983 47.85318897 35.9375 52.375 C37.28663901 52.92907045 38.63913016 53.47540165 40 54 C40 54.66 40 55.32 40 56 C47.92 56 55.84 56 64 56 C64 56.33 64 56.66 64 57 C66.64 57.33 69.28 57.66 72 58 C58.46402363 67.02398425 32.1641944 62.71456906 17.0625 59.83984375 C15.70767717 59.56308881 14.3534391 59.28344453 13 59 C11.96875 58.79503906 10.9375 58.59007812 9.875 58.37890625 C2.01740001 56.54013648 -4.92433638 52.77024412 -12 49 C-11.91145865 47.31160805 -11.80327913 45.62424306 -11.6875 43.9375 C-11.62949219 42.99777344 -11.57148438 42.05804688 -11.51171875 41.08984375 C-11.0212286 38.12818183 -10.07419018 35.88065665 -8.83569336 33.17114258 C-6.94573521 28.2610059 -6.05295061 23.00436111 -4.9375 17.875 C-4.42953087 15.55907022 -3.91794532 13.24393001 -3.40234375 10.9296875 C-3.18054443 9.91116699 -2.95874512 8.89264648 -2.73022461 7.84326172 C-2.02684388 5.10452151 -1.11237659 2.59623992 0 0 Z " fill="#45413F" transform="translate(26,151)"/>
<path d="M0 0 C4.22860001 2.50031328 6.60034953 5.46821654 8.75 9.875 C10.43208782 17.58456919 10.69723261 25.45702007 6.5 32.3125 C1.04074547 37.77175453 -3.54954947 39.39939641 -11.125 39.5 C-16.0274322 39.46566924 -19.23440463 39.41989595 -23 36.125 C-28.71161401 29.69943424 -30.86041755 24.96440398 -30.71484375 16.359375 C-30.07239066 10.23854922 -26.6869031 5.59677293 -22.5 1.3125 C-16.19649372 -3.29982167 -6.98130029 -3.21610463 0 0 Z " fill="#F7FBFB" transform="translate(253.5,275.6875)"/>
<path d="M0 0 C1.16080078 -0.00153076 2.32160156 -0.00306152 3.51757812 -0.00463867 C9.69542377 0.07512434 15.149792 0.56128589 21.0625 2.375 C21.0625 2.705 21.0625 3.035 21.0625 3.375 C15.1225 3.045 9.1825 2.715 3.0625 2.375 C3.0625 3.035 3.0625 3.695 3.0625 4.375 C1.825 4.4575 0.5875 4.54 -0.6875 4.625 C-3.78253187 5.00845528 -4.82161781 5.28585986 -7.375 7.25 C-10.79758805 11.90471974 -10.23338878 17.41286067 -10.3671875 22.95117188 C-10.63241397 29.2447749 -12.17152824 33.38828177 -16.4375 38.1875 C-20.27873764 41.54858294 -23.36286146 41.55704158 -28.3125 41.625 C-29.43398438 41.65078125 -30.55546875 41.6765625 -31.7109375 41.703125 C-36.57327504 41.20865 -39.12703272 39.07740497 -42.75 35.9375 C-45.80704833 32.11138291 -45.4115229 27.98181148 -45.30859375 23.27734375 C-44.63282712 17.9921374 -43.068394 15.04942102 -39 11.625 C-38.31035156 11.03203125 -37.62070312 10.4390625 -36.91015625 9.828125 C-34.9375 8.375 -34.9375 8.375 -31.9375 7.375 C-31.2878125 6.66923828 -31.2878125 6.66923828 -30.625 5.94921875 C-23.28016455 -0.90256061 -9.22861733 0.00684062 0 0 Z " fill="#433F3D" transform="translate(385.9375,93.625)"/>
<path d="M0 0 C-0.66 1.32 -1.32 2.64 -2 4 C1.3 4 4.6 4 8 4 C8 4.33 8 4.66 8 5 C7.31292969 5.06058594 6.62585938 5.12117188 5.91796875 5.18359375 C4.56638672 5.30927734 4.56638672 5.30927734 3.1875 5.4375 C1.84751953 5.55931641 1.84751953 5.55931641 0.48046875 5.68359375 C-2.12743559 5.93489767 -2.12743559 5.93489767 -5 7 C-5.91298748 9.73896245 -6.10150854 11.25613003 -6.0703125 14.0625 C-6.14113937 24.15584213 -6.52850159 32.3428743 -14 40 C-18.39075895 42.84160004 -22.94650442 42.58451852 -28 42 C-33.03000995 40.6936055 -36.80353499 39.01567081 -39.5 34.4375 C-41.80756274 29.14933539 -43.18368874 24.69367932 -41.3515625 18.9765625 C-39.08727931 13.92546923 -35.84400945 9.80442652 -31 7 C-29.68 7 -28.36 7 -27 7 C-27 6.34 -27 5.68 -27 5 C-17.72175289 1.33304572 -9.96738759 -0.17798906 0 0 Z " fill="#423E3C" transform="translate(631,94)"/>
<path d="M0 0 C0.10129515 6.49603988 0.17142075 12.99187668 0.21972656 19.48852539 C0.23986064 21.69921479 0.26717015 23.90985082 0.30175781 26.12036133 C0.35019629 29.29521846 0.37295072 32.46937248 0.390625 35.64453125 C0.41127014 36.63524124 0.43191528 37.62595123 0.45318604 38.64668274 C0.45348816 39.56741074 0.45379028 40.48813873 0.45410156 41.43676758 C0.46298401 42.2472908 0.47186646 43.05781403 0.48101807 43.89289856 C0 46 0 46 -1.83990479 47.76689148 C-4.75688213 49.43207253 -6.91753112 49.29616746 -10.25 49.1875 C-11.86648438 49.14689453 -11.86648438 49.14689453 -13.515625 49.10546875 C-14.33546875 49.07066406 -15.1553125 49.03585938 -16 49 C-16 48.34 -16 47.68 -16 47 C-16.61488281 46.75121094 -17.22976563 46.50242188 -17.86328125 46.24609375 C-20.38462521 44.77569389 -20.99045123 43.68623547 -22.1875 41.0625 C-22.51105469 40.37285156 -22.83460938 39.68320313 -23.16796875 38.97265625 C-25.66451278 33.05361994 -25.91660088 27.08121192 -23.9375 20.9375 C-20.44603012 12.77457273 -9.32819939 0 0 0 Z " fill="#F8F8F8" transform="translate(645,146)"/>
<path d="M0 0 C0 14.85 0 29.7 0 45 C-2.475 45.495 -2.475 45.495 -5 46 C-5 46.66 -5 47.32 -5 48 C-14.38493036 49.05204735 -14.38493036 49.05204735 -17.9609375 46.72265625 C-23.74344555 40.25035663 -25.85986913 32.66883837 -25.58984375 24.08203125 C-23.74294872 14.43169893 -14.99475727 7.83699728 -7.83203125 1.80078125 C-5 0 -5 0 0 0 Z " fill="#F8F8F8" transform="translate(396,147)"/>
<path d="M0 0 C7.24486551 -0.02526739 14.48971974 -0.0428318 21.73461914 -0.05493164 C24.20142033 -0.05997356 26.66821852 -0.06680691 29.13500977 -0.07543945 C32.67204529 -0.08751125 36.20904145 -0.09322956 39.74609375 -0.09765625 C40.85649521 -0.10281754 41.96689667 -0.10797882 43.11094666 -0.11329651 C44.64242088 -0.11340981 44.64242088 -0.11340981 46.20483398 -0.11352539 C47.10862289 -0.115746 48.0124118 -0.11796661 48.94358826 -0.12025452 C51 0 51 0 52 1 C52.08651611 2.41570123 52.10704904 3.835595 52.09765625 5.25390625 C52.09443359 6.10791016 52.09121094 6.96191406 52.08789062 7.84179688 C52.07532227 9.18854492 52.07532227 9.18854492 52.0625 10.5625 C52.05798828 11.46419922 52.05347656 12.36589844 52.04882812 13.29492188 C52.03700225 15.53001314 52.0205222 17.76497437 52 20 C49.26766842 21.36616579 46.98809556 21.19821243 43.93359375 21.28125 C42.72638672 21.31863281 41.51917969 21.35601562 40.27539062 21.39453125 C37.71289357 21.46495102 35.15039356 21.53526319 32.58789062 21.60546875 C31.38197266 21.64285156 30.17605469 21.68023437 28.93359375 21.71875 C27.2638147 21.76418945 27.2638147 21.76418945 25.56030273 21.81054688 C23.0674999 21.71483405 23.0674999 21.71483405 22 23 C21.67 25.97 21.34 28.94 21 32 C28.92 32 36.84 32 45 32 C45 32.33 45 32.66 45 33 C36.42 33 27.84 33 19 33 C19 28.38 19 23.76 19 19 C29.56 19 40.12 19 51 19 C51 13.39 51 7.78 51 2 C34.17 2 17.34 2 0 2 C0 1.34 0 0.68 0 0 Z " fill="#D7EFF2" transform="translate(378,256)"/>
<path d="M0 0 C16.5 0 33 0 50 0 C50 5.28 50 10.56 50 16 C49.01 15.67 48.02 15.34 47 15 C47.66 15 48.32 15 49 15 C49 10.71 49 6.42 49 2 C33.49 2 17.98 2 2 2 C2.33 25.43 2.66 48.86 3 73 C2.01 73 1.02 73 0 73 C0 48.91 0 24.82 0 0 Z " fill="#3C768B" transform="translate(306,258)"/>
<path d="M0 0 C-0.66 0.66 -1.32 1.32 -2 2 C18.46 2.33 38.92 2.66 60 3 C60 3.66 60 4.32 60 5 C37.56 5 15.12 5 -8 5 C-8 3.35 -8 1.7 -8 0 C-2.25 -1.125 -2.25 -1.125 0 0 Z " fill="#7C7977" transform="translate(236,203)"/>
<path d="M0 0 C10.23 0 20.46 0 31 0 C31 0.66 31 1.32 31 2 C29.78098999 2.03758423 29.78098999 2.03758423 28.53735352 2.07592773 C24.87889248 2.19149118 21.22071472 2.31439584 17.5625 2.4375 C16.28310547 2.47681641 15.00371094 2.51613281 13.68554688 2.55664062 C11.86313477 2.61948242 11.86313477 2.61948242 10.00390625 2.68359375 C8.87799072 2.72025146 7.7520752 2.75690918 6.59204102 2.79467773 C4.07146559 2.71218045 4.07146559 2.71218045 3 4 C2.67 6.97 2.34 9.94 2 13 C9.92 13 17.84 13 26 13 C26 13.33 26 13.66 26 14 C17.42 14 8.84 14 0 14 C0 9.38 0 4.76 0 0 Z " fill="#CCE6EB" transform="translate(397,275)"/>
<path d="M0 0 C10.56 0 21.12 0 32 0 C32 0.66 32 1.32 32 2 C22.76 2.33 13.52 2.66 4 3 C3.34 4.98 2.68 6.96 2 9 C8.93 9 15.86 9 23 9 C23 9.33 23 9.66 23 10 C15.41 10 7.82 10 0 10 C0 6.7 0 3.4 0 0 Z " fill="#DDF2F5" transform="translate(470,275)"/>
<path d="M0 0 C7.59 0 15.18 0 23 0 C23 0.99 23 1.98 23 3 C15.08 3 7.16 3 -1 3 C-0.67 2.01 -0.34 1.02 0 0 Z " fill="#4E4B4A" transform="translate(201,101)"/>
<path d="M0 0 C0.495 0.144375 0.99 0.28875 1.5 0.4375 C4.97752922 1.21994407 8.45955123 1.58694764 12 2 C1.5060201 8.9959866 -15.97710225 6.19109631 -28 6 C-28 5.67 -28 5.34 -28 5 C-19.09 4.67 -10.18 4.34 -1 4 C-0.67 2.68 -0.34 1.36 0 0 Z " fill="#6D6B6A" transform="translate(86,207)"/>
<path d="M0 0 C-0.66 1.32 -1.32 2.64 -2 4 C1.3 4 4.6 4 8 4 C8 4.33 8 4.66 8 5 C6.95199219 5.09087891 6.95199219 5.09087891 5.8828125 5.18359375 C4.97273437 5.26738281 4.06265625 5.35117188 3.125 5.4375 C2.22007812 5.51871094 1.31515625 5.59992188 0.3828125 5.68359375 C-2.01110861 5.86989285 -2.01110861 5.86989285 -4 7 C-4.33 5.35 -4.66 3.7 -5 2 C-10.28 2.66 -15.56 3.32 -21 4 C-16.1461325 -0.8538675 -6.52382999 -0.24618226 0 0 Z " fill="#6B6666" transform="translate(631,94)"/>
<path d="M0 0 C1.32 0 2.64 0 4 0 C3.8238342 5.37305699 3.8238342 5.37305699 3 8 C-0.0625 10 -0.0625 10 -3 11 C-3 9.02 -3 7.04 -3 5 C-4.98 5 -6.96 5 -9 5 C-9 4.67 -9 4.34 -9 4 C-7.88625 3.896875 -6.7725 3.79375 -5.625 3.6875 C-4.42875 3.460625 -3.2325 3.23375 -2 3 C-1.34 2.01 -0.68 1.02 0 0 Z " fill="#676463" transform="translate(213,191)"/>
<path d="M0 0 C0 0.66 0 1.32 0 2 C-1.98 2.99 -1.98 2.99 -4 4 C-1.03 4.495 -1.03 4.495 2 5 C2 5.33 2 5.66 2 6 C-2.95 6 -7.9 6 -13 6 C-12.67 4.68 -12.34 3.36 -12 2 C-10.7625 1.67 -9.525 1.34 -8.25 1 C-7.55390625 0.814375 -6.8578125 0.62875 -6.140625 0.4375 C-4 0 -4 0 0 0 Z " fill="#696765" transform="translate(158,98)"/>
<path d="M0 0 C-2.77379516 0.79112855 -5.16741179 1.10317279 -8.046875 1.02734375 C-8.81 1.01509766 -9.573125 1.00285156 -10.359375 0.99023438 C-11.93759944 0.9554206 -13.5157382 0.9164422 -15.09375 0.87304688 C-20.41986498 0.79708718 -24.88066845 1.50978362 -30 3 C-30 2.34 -30 1.68 -30 1 C-21.44074264 -4.13555442 -9.15703427 -2.76438771 0 0 Z " fill="#B7D9E1" transform="translate(256,257)"/>
<path d="M0 0 C0.66 0.33 1.32 0.66 2 1 C-3.28 6.28 -8.56 11.56 -14 17 C-14 12.08113186 -10.31173311 9.3948461 -7 6 C-4.72300284 3.91201998 -2.39497582 1.9550823 0 0 Z " fill="#D5D3D2" transform="translate(637,149)"/>
<path d="M0 0 C1.19873962 3.94727832 0.6900877 6.19730268 -1 10 C-1.99 10.33 -2.98 10.66 -4 11 C-4.1546875 11.86625 -4.1546875 11.86625 -4.3125 12.75 C-5.40707864 16.33225738 -8.06823206 17.75439052 -11 20 C-11.66 19.67 -12.32 19.34 -13 19 C-12.56429688 18.63390625 -12.12859375 18.2678125 -11.6796875 17.890625 C-6.03445021 12.7585911 -3.09523408 6.90475295 0 0 Z " fill="#C7E4EA" transform="translate(282,305)"/>
<path d="M0 0 C0.99 0.33 1.98 0.66 3 1 C3 3.31 3 5.62 3 8 C1.35 8.66 -0.3 9.32 -2 10 C-2 10.99 -2 11.98 -2 13 C-3.98 13.66 -5.96 14.32 -8 15 C-7.06409496 13.8944811 -6.12620142 12.79064547 -5.1875 11.6875 C-4.66542969 11.07261719 -4.14335937 10.45773437 -3.60546875 9.82421875 C-2 8 -2 8 -0.28125 6.4375 C0.1415625 5.963125 0.564375 5.48875 1 5 C0.76956136 2.34533951 0.76956136 2.34533951 0 0 Z " fill="#C3E1E7" transform="translate(183,311)"/>
<path d="M0 0 C0.66 0.33 1.32 0.66 2 1 C-1.96 4.96 -5.92 8.92 -10 13 C-10.66 12.67 -11.32 12.34 -12 12 C-8.32167983 7.47384007 -4.58913637 3.60575001 0 0 Z " fill="#D6D4D4" transform="translate(388,149)"/>
<path d="M0 0 C0 0.33 0 0.66 0 1 C-0.59167969 1.03738281 -1.18335938 1.07476562 -1.79296875 1.11328125 C-6.75243447 1.52589585 -9.73973702 2.32212041 -14 5 C-16.3125 4.6875 -16.3125 4.6875 -18 4 C-11.97181491 -0.28670939 -7.28695785 -0.474377 0 0 Z " fill="#B4D6E1" transform="translate(156,274)"/>
<path d="M0 0 C0.33 0 0.66 0 1 0 C1 4.95 1 9.9 1 15 C1.66 15 2.32 15 3 15 C2.01 17.475 2.01 17.475 1 20 C0.67 20 0.34 20 0 20 C0 13.4 0 6.8 0 0 Z " fill="#EEECEC" transform="translate(283,95)"/>
<path d="M0 0 C-1.38877354 3.35620271 -2.91677965 5.07298728 -6 7 C-6.66 7 -7.32 7 -8 7 C-6.47663111 3.31852519 -4.31953005 0 0 0 Z " fill="#CAE3E9" transform="translate(235,276)"/>
<path d="M0 0 C0.66 0.33 1.32 0.66 2 1 C0.71520959 2.50589388 -0.57804082 4.00457375 -1.875 5.5 C-2.95394531 6.75296875 -2.95394531 6.75296875 -4.0546875 8.03125 C-4.69664063 8.6809375 -5.33859375 9.330625 -6 10 C-6.66 10 -7.32 10 -8 10 C-6.34908222 5.70761377 -3.26245434 3.1206085 0 0 Z " fill="#72706F" transform="translate(36,51)"/>
<path d="M0 0 C-1.44390925 3.80666984 -3.34952803 5.26602582 -7 7 C-7.66 6.67 -8.32 6.34 -9 6 C-7.8803014 4.99406757 -6.7540588 3.9954151 -5.625 3 C-4.68527344 2.1646875 -4.68527344 2.1646875 -3.7265625 1.3125 C-2 0 -2 0 0 0 Z " fill="#696665" transform="translate(352,158)"/>
<path d="M0 0 C-1.98 0.99 -1.98 0.99 -4 2 C-3.67 2.66 -3.34 3.32 -3 4 C-4.65 4 -6.3 4 -8 4 C-8 2.68 -8 1.36 -8 0 C-4.94736336 -0.98120464 -3.05263664 -0.98120464 0 0 Z " fill="#6B6969" transform="translate(522,35)"/>
<path d="M0 0 C1.32 0 2.64 0 4 0 C3.25 4.75 3.25 4.75 1 7 C1 5.68 1 4.36 1 3 C0.34 2.67 -0.32 2.34 -1 2 C-0.67 1.34 -0.34 0.68 0 0 Z " fill="#656462" transform="translate(449,191)"/>
<path d="M0 0 C1.98 0 3.96 0 6 0 C6.66 1.65 7.32 3.3 8 5 C5.04590299 3.62845496 2.55991624 2.01136276 0 0 Z " fill="#595553" transform="translate(298,118)"/>
<path d="M0 0 C0.66 0.33 1.32 0.66 2 1 C1.04882866 2.1725131 0.08882991 3.33787015 -0.875 4.5 C-1.40867187 5.1496875 -1.94234375 5.799375 -2.4921875 6.46875 C-2.98976563 6.9740625 -3.48734375 7.479375 -4 8 C-4.66 8 -5.32 8 -6 8 C-4.55746343 4.63408134 -2.66735273 2.48952921 0 0 Z " fill="#737170" transform="translate(478,107)"/>
<path d="M0 0 C0.66 0.33 1.32 0.66 2 1 C1.01 1.66 0.02 2.32 -1 3 C-0.67 3.99 -0.34 4.98 0 6 C-1.98 5.34 -3.96 4.68 -6 4 C-3.94766315 1.7522025 -2.99332739 0.9977758 0 0 Z " fill="#4D4A49" transform="translate(522,34)"/>
</svg>
